<?xml version="1.0" encoding="UTF-8"?>
<!DOCTYPE svg PUBLIC "-//W3C//DTD SVG 1.1//EN" "http://www.w3.org/Graphics/SVG/1.1/DTD/svg11.dtd">
<!-- Creator: CorelDRAW 2020 (64 Bit) -->
<svg xmlns="http://www.w3.org/2000/svg" xml:space="preserve" width="15.7853mm" height="17.5348mm" version="1.1" style="shape-rendering:geometricPrecision; text-rendering:geometricPrecision; image-rendering:optimizeQuality; fill-rule:evenodd; clip-rule:evenodd"
viewBox="0 0 92.19 102.41"
 xmlns:xlink="http://www.w3.org/1999/xlink"
 xmlns:xodm="http://www.corel.com/coreldraw/odm/2003">
 <defs>
  <style type="text/css">
   <![CDATA[
    .fil0 {fill:#C4FE00}
   ]]>
  </style>
 </defs>
 <g id="Camada_x0020_1">
  <metadata id="CorelCorpID_0Corel-Layer"/>
  <path class="fil0" d="M13.15 45.04c-0.53,-14.05 4.7,-22.9 14.01,-28.02 7.49,-4.13 29.77,-4.03 38.69,-3.08 -0.63,6.55 -8.36,17.47 -11.9,21.24 -5.04,5.37 -13.01,9.55 -20.75,12.55 1.47,1.91 3.08,3.26 4.92,5.1 3,2.99 2.81,2 7.27,1.06 6.12,-1.28 11.4,1.5 14.19,4.64 14.23,16.03 -13.98,42.02 -35.89,24.73 -8.59,-6.78 -11.11,-14.5 -10.66,-28.02 6.15,-0.06 12.27,4.55 15.19,7.48 4.04,4.05 5.99,9.07 7.02,16.05l12.62 -0.21c-0.34,-11.28 -5.87,-21.13 -14.66,-27l-2.21 -1.52c-0.1,-0.08 -0.28,-0.25 -0.35,-0.32l5.68 -6.27c6.39,-6.12 10.01,-13.52 11.53,-23.02l-12.75 0.23c-1.29,3.03 -1.62,5.65 -3.1,8.6 -3.04,6.06 -12.31,16.11 -18.84,15.77zm47.72 -0.94c1.66,-1.82 4.11,-3.65 6.25,-6.27 5.65,-6.92 9.97,-15.05 12.41,-23.99l12.67 -0.01 0 -13.65c-14.38,-0.35 -29.09,-0.04 -43.52,-0.07 -15.6,-0.03 -24.27,0.78 -33.76,8.99 -6.7,5.8 -14.4,15 -14.61,28.83 -0.18,11.84 -1.4,30.34 2.76,40.08 9.72,22.79 37.4,30.85 56.43,18.95 7.91,-4.95 15.77,-12.49 16.96,-25.67 1.21,-13.31 -4.12,-20.72 -14.02,-26.13l-1.19 -0.76c-0.06,-0.2 -0.26,-0.18 -0.38,-0.29z"/>
 </g>
</svg>
